#tb 0: 1/25
#media_type 0: video
#codec_id 0: rawvideo
#dimensions 0: 352x288
#sar 0: 0/1
0,          0,          0,        1,   152064, 0x173989ef
0,          1,          1,        1,   152064, 0xd2ae6551
0,          2,          2,        1,   152064, 0x5052f64a
0,          3,          3,        1,   152064, 0x2ad380b0
0,          4,          4,        1,   152064, 0x5422b652
